C:\Users\israe\Dropbox\PhDWork\ExperimentalData\subject7\055\P7S055W02_filtered35.mot
nRows=10
nColumns=28

name C:\Users\israe\Dropbox\PhDWork\ExperimentalData\subject7\055\P7S055W02_filtered35.mot
datacolumns 28
datarows 10
range 0.9400000000 0.9490000000
endheader
time	ground_force_1_vx	ground_force_1_vy	ground_force_1_vz	ground_force_1_px	ground_force_1_py	ground_force_1_pz	ground_moment_1_mx	ground_moment_1_my	ground_moment_1_mz	ground_force_2_vx	ground_force_2_vy	ground_force_2_vz	ground_force_2_px	ground_force_2_py	ground_force_2_pz	ground_moment_2_mx	ground_moment_2_my	ground_moment_2_mz	ground_force_3_vx	ground_force_3_vy	ground_force_3_vz	ground_force_3_px	ground_force_3_py	ground_force_3_pz	ground_moment_3_mx	ground_moment_3_my	ground_moment_3_mz
        0.9400000000	        0.0000000000	        0.0000000000	        0.0000000000	        0.1988394961	        0.0000558755	       -0.3004071324	        0.0000000000	        0.0000000000	        0.0000000000	       -0.0000000000	        0.0000000000	       -0.0000000000	        0.2029003516	       -0.0000795827	        0.4543649445	       -0.0000000000	        0.0000000000	        0.0000000000	       11.0669896078	      571.3179581816	      -17.3536182650	        0.2076431971	        0.0000770316	        1.3583900146	       92.4140662426	       -4.4144537420	      -29.2986186490	
        0.9410000000	        0.0000000000	        0.0000000000	        0.0000000000	        0.1988394961	        0.0000558755	       -0.3004071324	        0.0000000000	        0.0000000000	        0.0000000000	       -0.0000000000	        0.0000000000	       -0.0000000000	        0.2029003516	       -0.0000795827	        0.4543649445	       -0.0000000000	        0.0000000000	        0.0000000000	       11.1987162684	      571.4491861675	      -17.7117607644	        0.2076431971	        0.0000770316	        1.3583900146	       92.5030734021	       -4.4592507099	      -29.3101631894	
        0.9420000000	        0.0000000000	        0.0000000000	        0.0000000000	        0.1988394961	        0.0000558755	       -0.3004071324	        0.0000000000	        0.0000000000	        0.0000000000	       -0.0000000000	        0.0000000000	       -0.0000000000	        0.2029003516	       -0.0000795827	        0.4543649445	       -0.0000000000	        0.0000000000	        0.0000000000	       11.3268057079	      571.5657458683	      -18.0767475469	        0.2076431971	        0.0000770316	        1.3583900146	       92.5878312655	       -4.5029630547	      -29.3213260882	
        0.9430000000	        0.0000000000	        0.0000000000	        0.0000000000	        0.1988394961	        0.0000558755	       -0.3004071324	        0.0000000000	        0.0000000000	        0.0000000000	       -0.0000000000	        0.0000000000	       -0.0000000000	        0.2029003516	       -0.0000795827	        0.4543649445	       -0.0000000000	        0.0000000000	        0.0000000000	       11.4483151563	      571.6691839807	      -18.4487574059	        0.2076431971	        0.0000770316	        1.3583900146	       92.6697420577	       -4.5454034405	      -29.3317480363	
        0.9440000000	        0.0000000000	        0.0000000000	       -0.0000000000	        0.1988394961	        0.0000558755	       -0.3004071324	        0.0000000000	        0.0000000000	        0.0000000000	       -0.0000000000	        0.0000000000	       -0.0000000000	        0.2029003516	       -0.0000795827	        0.4543649445	       -0.0000000000	        0.0000000000	        0.0000000000	       11.5615753625	      571.7606109830	      -18.8277046399	        0.2076431971	        0.0000770316	        1.3583900146	       92.7503267956	       -4.5864617299	      -29.3406588395	
        0.9450000000	        0.0000000000	        0.0000000000	       -0.0000000000	        0.1988394961	        0.0000558755	       -0.3004071324	        0.0000000000	        0.0000000000	        0.0000000000	       -0.0000000000	        0.0000000000	       -0.0000000000	        0.2029003516	       -0.0000795827	        0.4543649445	       -0.0000000000	        0.0000000000	        0.0000000000	       11.6661415519	      571.8413882252	      -19.2132099690	        0.2076431971	        0.0000770316	        1.3583900146	       92.8310079316	       -4.6261335030	      -29.3472311575	
        0.9460000000	        0.0000000000	        0.0000000000	       -0.0000000000	        0.1988394961	        0.0000558755	       -0.3004071324	        0.0000000000	        0.0000000000	        0.0000000000	       -0.0000000000	        0.0000000000	       -0.0000000000	        0.2029003516	       -0.0000795827	        0.4543649445	       -0.0000000000	        0.0000000000	        0.0000000000	       11.7620103226	      571.9136264166	      -19.6043386854	        0.2076431971	        0.0000770316	        1.3583900146	       92.9127038558	       -4.6645083679	      -29.3509818553	
        0.9470000000	        0.0000000000	        0.0000000000	       -0.0000000000	        0.1988394961	        0.0000558755	       -0.3004071324	        0.0000000000	       -0.0000000000	        0.0000000000	       -0.0000000000	        0.0000000000	       -0.0000000000	        0.2029003516	       -0.0000795827	        0.4543649445	       -0.0000000000	       -0.0000000000	        0.0000000000	       11.8495324081	      571.9794492526	      -19.9993324409	        0.2076431971	        0.0000770316	        1.3583900146	       92.9954570807	       -4.7017452151	      -29.3519669194	
        0.9480000000	        0.0000000000	        0.0000000000	       -0.0000000000	        0.1988394961	        0.0000558755	       -0.3004071324	       -0.0000000000	       -0.0000000000	       -0.0000000000	       -0.0000000000	        0.0000000000	       -0.0000000000	        0.2029003516	       -0.0000795827	        0.4543649445	       -0.0000000000	       -0.0000000000	        0.0000000000	       11.9295371826	      572.0406932083	      -20.3958901735	        0.2076431971	        0.0000770316	        1.3583900146	       93.0786966478	       -4.7381027206	      -29.3506819829	
        0.9490000000	       -0.0000000000	        0.0000000000	       -0.0000000000	        0.1988394961	        0.0000558755	       -0.3004071324	       -0.0000000000	       -0.0000000000	       -0.0000000000	       -0.0000000000	        0.0000000000	       -0.0000000000	        0.2029003516	       -0.0000795827	        0.4543649445	       -0.0000000000	       -0.0000000000	        0.0000000000	       12.0030534577	      572.1014904514	      -20.7920117456	        0.2076431971	        0.0000770316	        1.3583900146	       93.1619049008	       -4.7739492261	      -29.3479132931	
